<svg width="100" height="100" xmlns="http://www.w3.org/2000/svg">
<style>
    path {
      fill: black;
    }
    @media (prefers-color-scheme: dark) {
      path {
        fill: white;
      }
    }
  </style>
<path d="M23.4712 23.4222V33.1585C25.0757 29.3661 27.1907 26.5582 29.8163 24.7349C32.5147 22.9116 35.7966 22 39.662 22C47.3927 22 52.5708 25.7195 55.1963 33.1585C58.8429 25.7195 64.5316 22 72.2623 22C77.5133 22 81.5975 23.7868 84.5147 27.3604C87.5049 30.9341 89 35.9299 89 42.3478V78.1206H75.8724V44.4264C75.8724 36.5498 72.8822 32.6115 66.9018 32.6115C63.547 32.6115 60.9579 33.7784 59.1346 36.1122C57.3843 38.446 56.5091 41.8008 56.5091 46.1767V78.1206H43.3815V44.0982C43.3815 40.3057 42.6157 37.4614 41.0841 35.5652C39.6255 33.5961 37.4376 32.6115 34.5203 32.6115C31.2384 32.6115 28.6858 33.8513 26.8626 36.331C25.0393 38.7377 24.1276 42.129 24.1276 46.5049V78.1206H11V23.4222H23.4712Z" />
</svg>
