<svg width="100" height="100" viewBox="0 0 100 100" xmlns="http://www.w3.org/2000/svg">
  <style>
    rect {
      fill: black
    }
    path {
      fill: white
    }
    @media (prefers-color-scheme: dark) {
      rect {
        fill: white
      }
      path {
        fill: black
      }
    }
  </style>

  <rect width="100" height="100" rx="50" fill="#A85FE1"/>
  <path d="M79.5975 79H70.5423C70.274 79 70.1398 78.8659 70.1398 78.5978V31.0555C70.1398 30.7873 69.9654 30.6801 69.6166 30.7337C69.4557 30.841 69.3483 30.9482 69.2947 31.0555L58.5089 78.7587C58.5089 78.9196 58.3747 79 58.1064 79H42.8533C42.585 79 42.4509 78.9196 42.4509 78.7587L31.7053 31.0555C31.5712 30.6533 31.3968 30.5192 31.1821 30.6533C30.9943 30.8141 30.9004 30.9482 30.9004 31.0555V78.5978C30.9004 78.8659 30.7663 79 30.498 79H21.4025C21.1342 79 21 78.8659 21 78.5978V21.4022C21 21.1341 21.1342 21 21.4025 21H38.5471C38.869 21 39.0703 21.1341 39.1508 21.4022L50.0975 68.7836C50.2317 69.2127 50.3927 69.3601 50.5805 69.2261C50.7415 69.092 50.8488 68.9445 50.9025 68.7836L61.8895 21.4022C61.9432 21.1341 62.1041 21 62.3724 21H79.5975C79.8659 21 80 21.1341 80 21.4022V78.5978C80 78.8659 79.8659 79 79.5975 79Z"/>
</svg>