<svg id="Layer_1" data-name="Layer 1" xmlns="http://www.w3.org/2000/svg" viewBox="0 0 500 500"><path d="M288.38,372.61c-56.39,0-112.79.25-169.18-.07-55-.32-98.93-37.89-110.81-87C-7.88,218.14,36.41,157,97.77,145.43c30.59-5.77,59,0,85.18,16.87,4.48,2.9,9,5.76,13.61,8.4,9.37,5.36,19.61,6.54,30.14,5.53,13.41-1.29,26.28-5.18,39.24-8.55,21.06-5.47,42.11-11,63.55-14.81a241.29,241.29,0,0,1,71.92-2.35c4.86.59,9.78.92,14.55,2a34.55,34.55,0,0,1,10,3.87,11.27,11.27,0,0,1,5.43,13c-1.45,5.33-5.55,8.53-11.43,8.81-6.48.32-13,.51-19.45.84-1.9.09-4.33-.54-4.94,2.23-.32,1.5,1.28,2.23,4.8,2.36l48.86,1.74c7.07.26,12.21,4.24,14,10.77a14.29,14.29,0,0,1-9.7,17.38,21.41,21.41,0,0,1-5.11.77c-9.94.39-19.89.67-29.83,1.07-1.74.06-4.51-.64-4.62,1.84-.14,3.12,2.91,2,4.66,2.15,15.4.83,30.82,1.47,46.23,2.32a15.57,15.57,0,0,1,14.27,11.9,16.08,16.08,0,0,1-6.43,17.14,16.49,16.49,0,0,1-8.93,2.81c-9.8.41-19.59,1-29.38,1.46-1.86.1-4-.12-4.29,2.51-.18,1.64,1.14,2.43,4.2,2.55,14,.51,28,1,41.94,1.49a16,16,0,0,1,15.22,11.36c3.12,10.28-4,20.36-14.95,21.07-6.19.4-12.39.6-18.58.85-9.95.41-19.89.77-29.83,1.19a17.74,17.74,0,0,0-4.68.64c-.76.25-1.78,1.45-1.69,2.08a4,4,0,0,0,1.85,2.47c.78.46,2,.29,3,.34l35.43,1.69c17.39.84,31.91,14.91,33,32,1.16,18.16-10.77,33.76-28.33,36.88a49.43,49.43,0,0,1-8.59.67q-84.81.06-169.62,0Z"/></svg>